<svg xmlns="http://www.w3.org/2000/svg" viewBox="0 0 400 300" role="img" aria-label="Steak plate">
  <defs>
    <radialGradient id="glow" cx="50%" cy="18%" r="75%">
      <stop offset="0%" stop-color="#6a0dad" stop-opacity=".34"/>
      <stop offset="100%" stop-color="#6a0dad" stop-opacity="0"/>
    </radialGradient>
    <radialGradient id="plate" cx="50%" cy="46%" r="62%">
      <stop offset="0%" stop-color="#1b1b1b"/>
      <stop offset="100%" stop-color="#101010"/>
    </radialGradient>
    <linearGradient id="steak" x1="0" y1="0" x2="1" y2="1">
      <stop offset="0%" stop-color="#8e3b2f"/>
      <stop offset="100%" stop-color="#5d2118"/>
    </linearGradient>
  </defs>
  <rect width="400" height="300" fill="#0d0d0d"/>
  <rect width="400" height="300" fill="url(#glow)"/>
  <ellipse cx="200" cy="172" rx="150" ry="86" fill="url(#plate)" stroke="#f5c800" stroke-opacity=".55" stroke-width="2"/>
  <path d="M118 156 q24-36 84-30 q56 6 64 36 q6 28-34 38 q-66 16-104-10 q-18-16-10-34z" fill="url(#steak)"/>
  <path d="M134 150 l92 36 M150 140 l86 34 M172 132 l72 30" stroke="#3a120c" stroke-width="5" stroke-linecap="round"/>
  <path d="M148 158 q34 16 76 12" stroke="#f5c800" stroke-opacity=".35" stroke-width="3" stroke-linecap="round" fill="none"/>
  <circle cx="292" cy="148" r="13" fill="#c9b458"/>
  <path d="M170 92 q-7 14 0 28 M200 86 q-7 14 0 28 M228 92 q-7 14 0 28" stroke="#f5c800" stroke-opacity=".5" stroke-width="3" stroke-linecap="round" fill="none"/>
</svg>
