<svg xmlns="http://www.w3.org/2000/svg" viewBox="0 0 400 300" role="img" aria-label="Rice and beans bowl">
  <defs>
    <radialGradient id="glow" cx="50%" cy="18%" r="75%">
      <stop offset="0%" stop-color="#6a0dad" stop-opacity=".34"/>
      <stop offset="100%" stop-color="#6a0dad" stop-opacity="0"/>
    </radialGradient>
    <linearGradient id="bowl" x1="0" y1="0" x2="0" y2="1">
      <stop offset="0%" stop-color="#23153a"/>
      <stop offset="100%" stop-color="#120a1f"/>
    </linearGradient>
  </defs>
  <rect width="400" height="300" fill="#0d0d0d"/>
  <rect width="400" height="300" fill="url(#glow)"/>
  <path d="M96 150 h208 a8 8 0 0 1 8 9 c-7 52-50 84-112 84 s-105-32-112-84 a8 8 0 0 1 8-9z" fill="url(#bowl)" stroke="#f5c800" stroke-opacity=".55" stroke-width="2"/>
  <path d="M96 154 a 110 22 0 0 1 104 -22 l0 22z" fill="#efe9da"/>
  <path d="M200 132 a 110 22 0 0 1 104 22 l-104 0z" fill="#43261a"/>
  <ellipse cx="200" cy="154" rx="112" ry="22" fill="none" stroke="#0d0d0d" stroke-width="2"/>
  <circle cx="142" cy="146" r="3" fill="#cfc6b2"/><circle cx="162" cy="150" r="3" fill="#cfc6b2"/><circle cx="150" cy="156" r="3" fill="#cfc6b2"/>
  <ellipse cx="240" cy="148" rx="7" ry="5" fill="#2a160e"/><ellipse cx="262" cy="154" rx="7" ry="5" fill="#2a160e"/><ellipse cx="282" cy="146" rx="7" ry="5" fill="#2a160e"/>
  <path d="M186 144 q14-12 28 0" stroke="#2c7a3f" stroke-width="5" stroke-linecap="round" fill="none"/>
  <path d="M178 96 q-7 14 0 28 M206 90 q-7 14 0 28 M232 96 q-7 14 0 28" stroke="#f5c800" stroke-opacity=".5" stroke-width="3" stroke-linecap="round" fill="none"/>
</svg>
