<svg xmlns="http://www.w3.org/2000/svg" viewBox="0 0 400 300" role="img" aria-label="Grilled chicken plate">
  <defs>
    <radialGradient id="glow" cx="50%" cy="18%" r="75%">
      <stop offset="0%" stop-color="#6a0dad" stop-opacity=".34"/>
      <stop offset="100%" stop-color="#6a0dad" stop-opacity="0"/>
    </radialGradient>
    <radialGradient id="plate" cx="50%" cy="46%" r="62%">
      <stop offset="0%" stop-color="#1b1b1b"/>
      <stop offset="100%" stop-color="#101010"/>
    </radialGradient>
    <linearGradient id="meat" x1="0" y1="0" x2="1" y2="1">
      <stop offset="0%" stop-color="#d8a35c"/>
      <stop offset="100%" stop-color="#a96f2f"/>
    </linearGradient>
  </defs>
  <rect width="400" height="300" fill="#0d0d0d"/>
  <rect width="400" height="300" fill="url(#glow)"/>
  <ellipse cx="200" cy="172" rx="150" ry="86" fill="url(#plate)" stroke="#f5c800" stroke-opacity=".55" stroke-width="2"/>
  <path d="M126 150 q42-34 96-16 q30 10 28 34 q-2 26-44 30 q-58 6-82-18 q-10-16 2-30z" fill="url(#meat)"/>
  <path d="M142 152 l64 26 M158 142 l60 26 M178 134 l52 24" stroke="#5e3a14" stroke-width="4" stroke-linecap="round"/>
  <ellipse cx="276" cy="196" rx="38" ry="18" fill="#2c7a3f"/>
  <circle cx="262" cy="192" r="6" fill="#3fa45a"/><circle cx="282" cy="200" r="6" fill="#3fa45a"/><circle cx="296" cy="190" r="5" fill="#3fa45a"/>
  <path d="M168 92 q-7 14 0 28 M196 86 q-7 14 0 28" stroke="#f5c800" stroke-opacity=".5" stroke-width="3" stroke-linecap="round" fill="none"/>
</svg>
