<svg xmlns="http://www.w3.org/2000/svg" viewBox="0 0 400 300" role="img" aria-label="Fish plate">
  <defs>
    <radialGradient id="glow" cx="50%" cy="18%" r="75%">
      <stop offset="0%" stop-color="#6a0dad" stop-opacity=".34"/>
      <stop offset="100%" stop-color="#6a0dad" stop-opacity="0"/>
    </radialGradient>
    <radialGradient id="plate" cx="50%" cy="46%" r="62%">
      <stop offset="0%" stop-color="#1b1b1b"/>
      <stop offset="100%" stop-color="#101010"/>
    </radialGradient>
    <linearGradient id="fillet" x1="0" y1="0" x2="1" y2="0">
      <stop offset="0%" stop-color="#e98f70"/>
      <stop offset="100%" stop-color="#c96a4a"/>
    </linearGradient>
  </defs>
  <rect width="400" height="300" fill="#0d0d0d"/>
  <rect width="400" height="300" fill="url(#glow)"/>
  <ellipse cx="200" cy="172" rx="150" ry="86" fill="url(#plate)" stroke="#f5c800" stroke-opacity=".55" stroke-width="2"/>
  <path d="M120 168 q40-30 118-22 l44 8 q12 4 2 12 l-40 14 q-78 20-122-2 q-10-6-2-10z" fill="url(#fillet)"/>
  <path d="M150 158 q-8 14 2 24 M182 152 q-8 14 2 24 M214 150 q-8 14 2 24 M246 152 q-8 14 2 24" stroke="#f7d9c4" stroke-width="4" stroke-linecap="round" fill="none"/>
  <circle cx="296" cy="142" r="14" fill="#c9d44e"/>
  <path d="M289 142 h14" stroke="#8c9a1f" stroke-width="2"/>
  <path d="M118 206 q36 12 84 6" stroke="#2c7a3f" stroke-width="6" stroke-linecap="round" fill="none"/>
  <path d="M186 92 q-7 14 0 28 M214 86 q-7 14 0 28" stroke="#f5c800" stroke-opacity=".5" stroke-width="3" stroke-linecap="round" fill="none"/>
</svg>
