<svg xmlns="http://www.w3.org/2000/svg" viewBox="0 0 400 300" role="img" aria-label="Oats bowl">
  <defs>
    <radialGradient id="glow" cx="50%" cy="18%" r="75%">
      <stop offset="0%" stop-color="#6a0dad" stop-opacity=".34"/>
      <stop offset="100%" stop-color="#6a0dad" stop-opacity="0"/>
    </radialGradient>
    <linearGradient id="bowl" x1="0" y1="0" x2="0" y2="1">
      <stop offset="0%" stop-color="#23153a"/>
      <stop offset="100%" stop-color="#120a1f"/>
    </linearGradient>
  </defs>
  <rect width="400" height="300" fill="#0d0d0d"/>
  <rect width="400" height="300" fill="url(#glow)"/>
  <path d="M96 150 h208 a8 8 0 0 1 8 9 c-7 52-50 84-112 84 s-105-32-112-84 a8 8 0 0 1 8-9z" fill="url(#bowl)" stroke="#f5c800" stroke-opacity=".55" stroke-width="2"/>
  <ellipse cx="200" cy="150" rx="112" ry="22" fill="#e8dcc7"/>
  <circle cx="158" cy="144" r="9" fill="#3b2a8f"/>
  <circle cx="186" cy="150" r="8" fill="#3b2a8f"/>
  <circle cx="172" cy="156" r="7" fill="#4a35a8"/>
  <path d="M232 138 l12 14 l12-14 l-12-6z" fill="#c0392b"/>
  <path d="M258 148 q14 4 26 0" stroke="#f5c800" stroke-width="5" stroke-linecap="round" fill="none"/>
  <path d="M178 96 q-7 14 0 28 M206 90 q-7 14 0 28 M232 96 q-7 14 0 28" stroke="#f5c800" stroke-opacity=".5" stroke-width="3" stroke-linecap="round" fill="none"/>
</svg>
