<svg xmlns="http://www.w3.org/2000/svg" viewBox="0 0 400 300" role="img" aria-label="Composed plate">
  <defs>
    <radialGradient id="glow" cx="50%" cy="18%" r="75%">
      <stop offset="0%" stop-color="#6a0dad" stop-opacity=".34"/>
      <stop offset="100%" stop-color="#6a0dad" stop-opacity="0"/>
    </radialGradient>
    <radialGradient id="plate" cx="50%" cy="46%" r="62%">
      <stop offset="0%" stop-color="#1b1b1b"/>
      <stop offset="100%" stop-color="#101010"/>
    </radialGradient>
  </defs>
  <rect width="400" height="300" fill="#0d0d0d"/>
  <rect width="400" height="300" fill="url(#glow)"/>
  <ellipse cx="200" cy="172" rx="150" ry="86" fill="url(#plate)" stroke="#f5c800" stroke-opacity=".55" stroke-width="2"/>
  <ellipse cx="200" cy="172" rx="116" ry="64" fill="none" stroke="#f5c800" stroke-opacity=".18" stroke-width="1"/>
  <path d="M132 158 q22-26 64-20 q30 6 30 26 q0 22-34 26 q-44 6-62-12 q-8-10 2-20z" fill="#8e5a2f"/>
  <ellipse cx="262" cy="158" rx="34" ry="17" fill="#efe9da"/>
  <ellipse cx="258" cy="196" rx="36" ry="16" fill="#2c7a3f"/>
  <circle cx="248" cy="194" r="5" fill="#3fa45a"/><circle cx="268" cy="200" r="5" fill="#3fa45a"/>
  <path d="M64 116 v68 M58 116 v18 q0 8 6 8 M70 116 v18 q0 8-6 8" stroke="#f5c800" stroke-opacity=".6" stroke-width="3" stroke-linecap="round" fill="none"/>
  <path d="M336 116 v68 M336 116 q12 4 0 34" stroke="#f5c800" stroke-opacity=".6" stroke-width="3" stroke-linecap="round" fill="none"/>
  <path d="M184 92 q-7 14 0 28 M212 86 q-7 14 0 28" stroke="#f5c800" stroke-opacity=".5" stroke-width="3" stroke-linecap="round" fill="none"/>
</svg>
