<svg xmlns="http://www.w3.org/2000/svg" viewBox="0 0 400 300" role="img" aria-label="Tortilla wrap plate">
  <defs>
    <radialGradient id="glow" cx="50%" cy="18%" r="75%">
      <stop offset="0%" stop-color="#6a0dad" stop-opacity=".34"/>
      <stop offset="100%" stop-color="#6a0dad" stop-opacity="0"/>
    </radialGradient>
    <radialGradient id="plate" cx="50%" cy="46%" r="62%">
      <stop offset="0%" stop-color="#1b1b1b"/>
      <stop offset="100%" stop-color="#101010"/>
    </radialGradient>
    <linearGradient id="tort" x1="0" y1="0" x2="1" y2="1">
      <stop offset="0%" stop-color="#e8c98a"/>
      <stop offset="100%" stop-color="#c9a35e"/>
    </linearGradient>
  </defs>
  <rect width="400" height="300" fill="#0d0d0d"/>
  <rect width="400" height="300" fill="url(#glow)"/>
  <ellipse cx="200" cy="172" rx="150" ry="86" fill="url(#plate)" stroke="#f5c800" stroke-opacity=".55" stroke-width="2"/>
  <path d="M122 176 q10-30 56-30 h70 q22 0 26 18 q4 20-18 24 l-92 10 q-36 2-42-22z" fill="url(#tort)"/>
  <path d="M150 148 q26 26 96 22" stroke="#a87f3e" stroke-width="3" fill="none"/>
  <path d="M166 150 q6 8 2 18 M196 148 q6 8 2 18 M228 146 q6 8 2 18" stroke="#2c7a3f" stroke-width="5" stroke-linecap="round" fill="none"/>
  <path d="M180 142 q8 4 16 0 M212 140 q8 4 16 0" stroke="#c0392b" stroke-width="5" stroke-linecap="round" fill="none"/>
  <circle cx="294" cy="200" r="12" fill="#3fa45a"/>
  <path d="M184 92 q-7 14 0 28 M212 86 q-7 14 0 28" stroke="#f5c800" stroke-opacity=".5" stroke-width="3" stroke-linecap="round" fill="none"/>
</svg>
